<svg xmlns="http://www.w3.org/2000/svg" width="32" height="32">
    <path fill="#BEBEBE" fill-rule="evenodd" d="M16.066 32C7.425 32 .421 24.836.421 16c0-8.837 7.004-16 15.645-16 8.64 0 15.644 7.163 15.644 16 0 8.836-7.004 16-15.644 16zm8.984-19.812c-.043-.984-.197-1.656-.419-2.244a4.54 4.54 0 0 0-1.044-1.637 4.404 4.404 0 0 0-1.6-1.066c-.575-.229-1.232-.385-2.194-.43-.965-.045-1.273-.056-3.727-.056-2.455 0-2.762.011-3.727.056-.962.045-1.619.201-2.194.43a4.428 4.428 0 0 0-1.602 1.066 4.56 4.56 0 0 0-1.042 1.637c-.224.588-.377 1.26-.42 2.244-.043.987-.055 1.301-.055 3.812s.012 2.826.055 3.812c.043.984.196 1.655.42 2.243a4.564 4.564 0 0 0 1.042 1.638c.504.514 1.007.83 1.602 1.066.575.229 1.232.385 2.194.43.965.045 1.272.056 3.727.056 2.454 0 2.762-.011 3.727-.056.962-.045 1.619-.201 2.194-.43a4.404 4.404 0 0 0 1.6-1.066 4.543 4.543 0 0 0 1.044-1.638c.222-.588.376-1.259.419-2.243.044-.986.055-1.301.055-3.812s-.011-2.825-.055-3.812zm-1.938 9.264c-.163.432-.36.74-.677 1.063a2.786 2.786 0 0 1-1.038.692c-.319.126-.798.277-1.678.318-.953.045-1.24.054-3.653.054-2.413 0-2.7-.009-3.653-.054-.88-.041-1.359-.192-1.678-.318a2.798 2.798 0 0 1-1.039-.692 2.87 2.87 0 0 1-.677-1.063c-.124-.326-.271-.815-.311-1.716-.043-.975-.052-1.268-.052-3.736 0-2.469.009-2.761.052-3.736.04-.901.187-1.391.311-1.716a2.87 2.87 0 0 1 .677-1.063 2.798 2.798 0 0 1 1.039-.692c.319-.126.798-.277 1.678-.318.953-.044 1.24-.054 3.653-.054 2.413 0 2.7.01 3.653.054.88.041 1.359.192 1.678.318.422.168.722.368 1.038.692.317.323.514.631.677 1.063.124.325.271.815.312 1.716.042.975.052 1.267.052 3.736 0 2.468-.01 2.761-.052 3.736-.041.901-.188 1.39-.312 1.716zm-7.046-10.199c-2.564 0-4.641 2.125-4.641 4.747s2.077 4.747 4.641 4.747 4.641-2.125 4.641-4.747-2.077-4.747-4.641-4.747zm4.825-1.297c-.598 0-1.086.496-1.086 1.109a1.1 1.1 0 0 0 1.086 1.11c.599 0 1.084-.497 1.084-1.11 0-.613-.485-1.109-1.084-1.109zm-4.825 9.125c-1.664 0-3.013-1.379-3.013-3.081s1.349-3.082 3.013-3.082 3.012 1.38 3.012 3.082-1.348 3.081-3.012 3.081z"/>
</svg>
