<svg xmlns="http://www.w3.org/2000/svg" width="16" height="16">
    <path fill="#0A4B8B" fill-rule="evenodd" d="M10.58 10.281l-.232-.243c.85-1.051 1.276-2.264 1.276-3.639 0-1.562-.522-2.89-1.566-3.982C9.013 1.325 7.75.78 6.268.78c-1.483 0-2.746.545-3.79 1.637S.912 4.83.912 6.379c0 1.55.522 2.871 1.566 3.962 1.044 1.092 2.313 1.638 3.809 1.638 1.315 0 2.475-.445 3.48-1.334l.233.242v.687l4.099 4.286 1.237-1.294-4.099-4.285h-.657zM2.575 6.399c0-1.077.36-1.994 1.082-2.749.722-.754 1.599-1.132 2.63-1.132s1.908.378 2.63 1.132C9.638 4.405 10 5.322 10 6.399c0 1.079-.362 1.995-1.083 2.75-.722.755-1.599 1.132-2.63 1.132s-1.908-.377-2.63-1.132c-.722-.755-1.082-1.671-1.082-2.75z"/>
</svg>
