<svg xmlns="http://www.w3.org/2000/svg" width="32" height="32">
    <path fill="#BEBEBE" fill-rule="evenodd" d="M16.356 32C7.716 32 .712 24.836.712 16S7.716 0 16.356 0s15.643 7.164 15.643 16-7.003 16-15.643 16zm9.267-16.432v-.275c0-1.6-.188-3.199-.188-3.199s-.181-1.363-.735-1.963c-.704-.786-1.494-.79-1.857-.836-2.594-.199-6.482-.199-6.482-.199h-.009s-3.891 0-6.482.2c-.362.045-1.151.049-1.857.836-.556.6-.737 1.962-.737 1.962s-.186 1.599-.186 3.199v1.498c0 1.6.186 3.2.186 3.2s.181 1.361.737 1.961c.706.787 1.632.762 2.044.844 1.481.151 6.299.198 6.299.198s3.893-.007 6.487-.206c.363-.046 1.153-.049 1.857-.837.554-.599.735-1.961.735-1.961s.188-1.599.188-3.199v-1.223zm-11.179-1.217l-.002-1.294 2.258 1.256 2.748 1.53-5.004 2.766v-4.258z"/>
</svg>
